<svg xmlns="http://www.w3.org/2000/svg" version="1.1" xmlns:xlink="http://www.w3.org/1999/xlink" xmlns:svgjs="http://svgjs.dev/svgjs" width="128" height="128" viewBox="0 0 128 128"><g transform="matrix(0.44782608695652176,0,0,0.44782608695652176,35.33913043478261,12.5)"><svg viewBox="0 0 125 225" data-background-color="#ffffff" preserveAspectRatio="xMidYMid meet" height="230" width="128" xmlns="http://www.w3.org/2000/svg" xmlns:xlink="http://www.w3.org/1999/xlink"><g id="tight-bounds" transform="matrix(1,0,0,1,0,0)"><svg viewBox="0 0 125 225" height="225" width="125"><g><svg></svg></g><g><svg viewBox="0 0 125 225" height="225" width="125"><g><path d="M8.188 130.945l1.455 1.82-0.727-2.366c-0.182-1.092-1.456 0.182-0.728 0.546M9.825 129.854c0.546 0.91 1.092 1.82 1.092 2.729 0 1.274 1.092 1.82 2.001 2.183-1.274-1.456-2.001-5.459-3.093-4.912M79.694 52.707c3.093 0 6.004-0.364 9.28 0.363 8.006 2.001 14.738 6.004 19.287 11.645l12.736 20.379c0.546 5.095 1.638 10.735 1.456 16.921 1.274 0 1.092-1.82 2.547-2.183-1.456 3.639-2.183 8.188-2.547 13.464-0.91-2.911 0-7.278 0.182-9.643-1.274 2.001-2.001 0.546-2.002-0.364 0.182-1.456-0.546-1.274-1.092-1.82-2.001-1.82-3.275-3.821-4.73-6.914 0.91-2.365 1.092-5.822-1.82-7.642-0.91-0.546-2.001-1.456-2.547-2.911-0.728-2.001-2.001-4.367-1.638-7.46 0.182-0.91-2.729 2.001-4.366 0.728-7.096-4.913-14.192-10.553-22.744-15.284-4.549 0-7.824-1.638-9.462-3.639-1.456-1.82-0.364-4.185 1.82-4.367 1.274 0 2.729-0.364 3.821 0.364 0.182-0.728 0.91-1.638 1.819-1.637M61.681 48.522l0.364 0.182c1.82 0.364 2.729 2.911 4.731 2.001 0 1.274 0.182 2.547-0.182 3.457-0.546 1.456-2.183 1.456-3.457 1.456-12.191-0.728-19.287 4.367-26.747 8.733-2.001 1.274-4.185 2.183-5.822 3.821-7.824 7.278-16.376 14.01-18.377 27.475l-1.638 14.92c-0.182 1.638-2.001 3.275-1.637 5.276l1.273 8.916c-1.274-1.274-2.001 0.364-1.637 1.092 0.182 0.546 0.91 2.365 2.001 0.727 1.456 2.729 2.911 8.006 4.913 10.372 6.186 7.278 14.192 13.828 20.742 20.378 1.638-0.364 2.911-0.364 3.275-1.456 0.546 1.092-0.546 2.183-1.455 2.366 2.911 1.82 6.186 3.457 10.553 3.821 5.64 0.364 10.917 1.274 15.829 2.547 2.547-0.728 5.095-1.092 7.824-1.274 0.91 0 1.456-1.456 2.548-1.819l0.182-1.82c1.092 1.638 0.91-0.546 0.182-1.637 1.274 1.092 1.638 2.001 2.183 2.729 0-0.546 1.456-2.547 1.456-0.182l0.363-2.365c0.546-0.364 0.728 2.001 1.274 0.364 0.546-1.638 1.638-0.364 2.729-0.91-0.364 0.728-0.182 2.183 1.092 1.274l1.456-1.274c0.91 2.183 2.365 1.274 3.093 0.91 8.006-5.095 16.012-11.099 23.653-17.104l-0.182 2.366 0.91-2.911c0.91 0.91 1.638 0.182 2.002-0.364 1.092-1.82 2.547-3.639 4.912-5.277-2.911 7.824-6.368 14.01-10.735 19.105l-1.819 2.183c0 1.274-0.364 2.911-1.82 3.093-0.728 0.182-2.183-0.364-3.275 0.728-0.546 0.728 1.274 2.183-0.182 1.092-1.274-0.91-2.547 0-4.003 0.364-1.092 0.364 0.728 1.456 1.092 2.183 0.364 0.728 0.728 1.456 0.546 2.366l-2.002-2.184c-2.365 1.274-3.821 3.639-5.822 5.459-0.91 0.728-0.546 2.001-0.546 3.093-1.274 0-2.729-0.364-3.457 0.364-0.546 0.728-0.364 1.82-0.364 2.911-1.82-0.182-2.001-2.911-3.639-2.365-1.638 0.364-3.457 0.546-4.913 1.455 1.092 2.183-1.82 0.91-1.455 1.274-2.729-1.638-5.095-2.911-8.006-1.82-6.186-2.001-13.828-1.092-19.469-0.364 0-0.91 0.182-1.82-0.182-2.001-0.364 0.91-1.456 0.546-1.273 0.546-3.457-2.365-6.914-3.821-10.553-5.823-3.275 0.364-6.368-1.274-7.278-2.183-2.547-2.365-5.459-1.092-7.824-1.638-5.095-1.274-6.914-6.55-7.46-10.189-0.364-1.82-1.82-2.547-2.366-2.365-2.365-7.642-6.004-14.556-8.915-21.652-0.728-1.82-0.546-3.639-0.546-5.641 0.91 0.364 1.82 0.182 1.638-1.091-0.91-6.004-3.093-10.553-5.459-14.92 1.274-6.186 1.456-13.464 4.367-18.923 2.547-4.913 7.278-7.46 10.553-11.645 1.092-1.456 1.092-3.457 2.183-4.731 3.639-3.639 7.278-7.46 11.281-10.735 1.82-1.456 4.003 0 6.732-0.546 0.91-3.275 4.549-6.186 8.006-5.276 1.456 0.364 4.367-3.457 5.277-3.821 1.456-0.546 0.728 1.456 0.728 2.729 3.457-2.729 8.188-4.185 12.554-5.822" fill="#e1cf5e" fill-rule="nonzero" stroke="none" stroke-width="1" stroke-linecap="butt" stroke-linejoin="miter" stroke-miterlimit="10" stroke-dasharray="" stroke-dashoffset="0" font-family="none" font-weight="none" font-size="none" text-anchor="none" style="mix-blend-mode: normal" data-fill-palette-color="tertiary"></path></g><g transform="matrix(1,0,0,1,41.745569407008084,77.7375)"><svg viewBox="0 0 41.50886118598383 69.525" height="69.525" width="41.50886118598383"><g><svg viewBox="0 0 41.50886118598383 69.525" height="69.525" width="41.50886118598383"><g><svg viewBox="0 0 41.50886118598383 69.525" height="69.525" width="41.50886118598383"><g><svg viewBox="0 0 41.50886118598383 69.525" height="69.525" width="41.50886118598383"><g><svg viewBox="0 0 41.50886118598383 69.525" height="69.525" width="41.50886118598383"><g transform="matrix(1,0,0,1,0,0)"><svg width="41.50886118598383" viewBox="2.98 -35.94 21.63 36.23" height="69.525" data-palette-color="#75495e"><path d="M6.93-35.5L6.93-35.5Q7.13-35.55 7.28-35.64 7.42-35.74 7.62-35.74L7.62-35.74Q7.76-35.69 7.84-35.55 7.91-35.4 8.06-35.3L8.06-35.3Q8.2-35.4 8.33-35.5 8.45-35.6 8.59-35.64L8.59-35.64Q9.08-35.5 9.13-35.16L9.13-35.16Q9.38-35.06 9.57-34.94 9.77-34.81 10.01-34.77L10.01-34.77Q10.11-34.57 10.25-34.47 10.4-34.38 10.6-34.18L10.6-34.18Q11.08-34.08 11.89-33.64 12.7-33.2 13.18-32.96L13.18-32.96Q13.67-32.71 14.16-32.47 14.65-32.23 15.09-31.93L15.09-31.93Q15.53-31.69 15.97-31.37 16.41-31.05 16.89-30.86L16.89-30.86Q17.33-30.32 18.02-30.18 18.7-30.03 19.24-29.64L19.24-29.64Q19.68-29.39 20.07-29.13 20.46-28.86 20.85-28.61L20.85-28.61Q21-28.37 21.22-28.22 21.44-28.08 21.63-27.83L21.63-27.83Q22.61-27.29 22.75-27L22.75-27Q22.9-26.9 23.19-26.71 23.49-26.51 23.78-26.29 24.07-26.07 24.32-25.85 24.56-25.63 24.61-25.44L24.61-25.44Q24.41-25 24.41-24.73 24.41-24.46 24.22-24.27L24.22-24.27Q24.51-23.88 24.51-23.54L24.51-23.54Q24.27-22.95 23.68-22.56L23.68-22.56Q23.54-22.17 23.22-21.95 22.9-21.73 22.8-21.34L22.8-21.34Q22.41-21.09 22.34-20.95 22.27-20.8 22.17-20.65L22.17-20.65Q21.24-19.68 20.43-18.97 19.63-18.26 18.95-17.43L18.95-17.43Q18.46-17.19 18.12-16.82 17.77-16.46 17.48-16.02L17.48-16.02Q17.09-15.63 16.72-15.26 16.36-14.89 15.97-14.55L15.97-14.55Q15.87-14.36 15.65-14.23 15.43-14.11 15.33-13.87L15.33-13.87Q14.79-13.62 14.45-13.18 14.11-12.74 13.62-12.45L13.62-12.45 13.28-11.96Q13.13-11.87 12.87-11.65 12.6-11.43 12.33-11.16 12.06-10.89 11.87-10.64 11.67-10.4 11.62-10.25L11.62-10.25Q11.47-10.21 11.16-9.96 10.84-9.72 10.52-9.42 10.21-9.13 9.94-8.84 9.67-8.54 9.62-8.45L9.62-8.45 9.13-8.11Q9.18-6.79 9.2-5.44 9.23-4.1 9.23-2.78L9.23-2.78 9.23-1.12 8.89-0.68Q8.64-0.68 8.5-0.78 8.35-0.88 8.15-0.88L8.15-0.88Q7.96-0.88 7.79-0.68 7.62-0.49 7.47-0.39L7.47-0.39Q7.13-0.34 6.91-0.22 6.69-0.1 6.45 0L6.45 0Q6.15-0.15 5.86-0.15L5.86-0.15Q5.22 0 5.25-0.1 5.27-0.2 5.03-0.2L5.03-0.2Q4.64 0.2 4.54 0.2L4.54 0.2Q4.35 0.2 4.17 0.24 4 0.29 3.81 0.29L3.81 0.29Q3.61-0.1 3.49-0.51 3.37-0.93 3.03-1.32L3.03-1.32Q3.17-1.81 2.98-2L2.98-2Q3.27-2.54 3.22-3.22 3.17-3.91 3.17-4.49L3.17-4.49Q3.17-4.83 3.2-5.15 3.22-5.47 3.22-5.76L3.22-5.76Q3.22-6.35 3.13-6.96 3.03-7.57 3.03-8.2L3.03-8.2Q3.03-9.67 3.13-11.16 3.22-12.65 3.22-14.11L3.22-14.11Q3.22-14.94 3.15-15.82 3.08-16.7 3.08-17.53L3.08-17.53Q3.08-18.07 3.13-18.53 3.17-18.99 3.22-19.43L3.22-19.43Q3.22-21.68 3.3-23.75 3.37-25.83 3.37-27.88L3.37-27.88Q3.37-28.56 3.34-29.17 3.32-29.79 3.32-30.47L3.32-30.47Q3.32-30.81 3.37-31.15 3.42-31.49 3.42-31.84L3.42-31.84Q3.56-33.35 3.56-34.86L3.56-34.86 3.52-35.64Q3.71-35.94 4.1-35.94L4.1-35.94Q4.64-35.94 4.93-35.6L4.93-35.6Q5.27-35.64 5.59-35.72 5.91-35.79 6.2-35.79L6.2-35.79Q6.64-35.79 6.93-35.5ZM9.91-27.88L9.81-27.73Q9.81-27.49 9.77-27.37 9.72-27.25 9.67-27.15L9.67-27.15Q9.67-27 9.69-26.83 9.72-26.66 9.72-26.46L9.72-26.46Q9.72-25.34 9.69-24.24 9.67-23.14 9.67-22.07L9.67-22.07 9.57-19.48Q9.57-19.24 9.62-18.95 9.67-18.65 9.67-18.41L9.67-18.41Q9.67-18.16 9.62-17.92 9.57-17.68 9.57-17.43L9.57-17.43Q9.57-16.8 9.72-16.16L9.72-16.16Q9.96-16.26 10.06-16.48 10.16-16.7 10.3-16.85L10.3-16.85Q11.43-17.87 12.4-18.99 13.38-20.12 14.4-21.24L14.4-21.24Q15.28-22.17 15.92-22.75 16.55-23.34 16.89-24.17L16.89-24.17Q16.06-24.71 15.19-25.27 14.31-25.83 13.33-26.22L13.33-26.22Q13.28-26.32 13.06-26.46 12.84-26.61 12.6-26.73 12.35-26.86 12.11-26.95 11.87-27.05 11.77-27.05L11.77-27.05Q11.33-27.44 10.84-27.54L10.84-27.54Q10.5-27.54 10.25-27.66 10.01-27.78 9.91-27.88L9.91-27.88Z" opacity="1" transform="matrix(1,0,0,1,0,0)" fill="#75495e" class="undefined-text-0" data-fill-palette-color="primary" id="text-0"></path></svg></g></svg></g></svg></g></svg></g><g></g></svg></g></svg></g></svg></g><defs></defs></svg><rect width="125" height="225" fill="none" stroke="none" visibility="hidden"></rect></g></svg></g></svg>