<svg xmlns="http://www.w3.org/2000/svg" version="1.1" xmlns:xlink="http://www.w3.org/1999/xlink" xmlns:svgjs="http://svgjs.dev/svgjs" width="2000" height="2250" viewBox="0 0 2000 2250"><g transform="matrix(1,0,0,1,3.410605131648481e-13,0)"><svg viewBox="0 0 320 360" data-background-color="#ffffff" preserveAspectRatio="xMidYMid meet" height="2250" width="2000" xmlns="http://www.w3.org/2000/svg" xmlns:xlink="http://www.w3.org/1999/xlink"><g id="tight-bounds" transform="matrix(1,0,0,1,0,0)"><svg viewBox="0 0 320 360" height="360" width="320"><g><svg></svg></g><g><svg viewBox="0 0 320 360" height="360" width="320"><g><path xmlns="http://www.w3.org/2000/svg" d="M20.961 227.22l3.726 4.658-1.863-6.056c-0.466-2.795-3.726 0.466-1.863 1.398M25.153 224.425c1.397 2.329 2.795 4.658 2.795 6.987 0 3.261 2.795 4.658 5.123 5.589-3.261-3.726-5.124-13.974-7.918-12.576M204.017 26.929c7.918 0 15.371-0.932 23.756 0.931 20.495 5.124 37.729 15.371 49.374 29.811l32.606 52.169c1.397 13.042 4.192 27.482 3.726 43.319 3.261 0 2.795-4.658 6.521-5.59-3.726 9.316-5.59 20.961-6.521 34.469-2.329-7.453 0-18.632 0.466-24.687-3.261 5.124-5.124 1.397-5.124-0.932 0.466-3.726-1.397-3.261-2.795-4.658-5.124-4.658-8.384-9.782-12.11-17.7 2.329-6.055 2.795-14.905-4.658-19.563-2.329-1.397-5.124-3.726-6.521-7.453-1.863-5.124-5.124-11.179-4.193-19.097 0.466-2.329-6.987 5.124-11.179 1.863-18.166-12.576-36.332-27.016-58.224-39.127-11.645 0-20.029-4.192-24.221-9.316-3.726-4.658-0.932-10.713 4.658-11.179 3.261 0 6.987-0.932 9.782 0.932 0.466-1.863 2.329-4.192 4.657-4.192M157.904 16.215l0.932 0.466c4.658 0.932 6.987 7.453 12.11 5.124 0 3.261 0.466 6.521-0.466 8.85-1.397 3.726-5.59 3.726-8.85 3.726-31.208-1.863-49.374 11.179-68.471 22.358-5.124 3.261-10.713 5.59-14.906 9.782-20.029 18.632-41.921 35.866-47.045 70.335l-4.192 38.195c-0.466 4.192-5.124 8.384-4.192 13.508l3.26 22.824c-3.261-3.261-5.124 0.932-4.192 2.795 0.466 1.397 2.329 6.055 5.124 1.863 3.726 6.987 7.453 20.495 12.576 26.55 15.837 18.632 36.332 35.4 53.101 52.169 4.192-0.932 7.453-0.932 8.384-3.727 1.397 2.795-1.397 5.59-3.726 6.056 7.453 4.658 15.837 8.85 27.016 9.781 14.44 0.932 27.948 3.261 40.524 6.522 6.521-1.863 13.042-2.795 20.029-3.261 2.329 0 3.726-3.726 6.521-4.658l0.466-4.658c2.795 4.192 2.329-1.397 0.466-4.192 3.261 2.795 4.192 5.124 5.589 6.987 0-1.397 3.726-6.521 3.727-0.466l0.931-6.055c1.397-0.932 1.863 5.124 3.261 0.931 1.397-4.192 4.192-0.932 6.987-2.329-0.932 1.863-0.466 5.59 2.794 3.261l3.727-3.261c2.329 5.59 6.055 3.261 7.918 2.329 20.495-13.042 40.99-28.413 60.553-43.784l-0.466 6.055 2.329-7.453c2.329 2.329 4.192 0.466 5.124-0.931 2.795-4.658 6.521-9.316 12.577-13.508-7.453 20.029-16.303 35.866-27.482 48.908l-4.658 5.59c0 3.261-0.932 7.453-4.658 7.918-1.863 0.466-5.59-0.932-8.384 1.863-1.397 1.863 3.261 5.59-0.466 2.795-3.261-2.329-6.521 0-10.248 0.932-2.795 0.932 1.863 3.726 2.795 5.589 0.932 1.863 1.863 3.726 1.398 6.056l-5.124-5.59c-6.055 3.261-9.782 9.316-14.906 13.974-2.329 1.863-1.397 5.124-1.397 7.918-3.261 0-6.987-0.932-8.85 0.932-1.397 1.863-0.932 4.658-0.932 7.453-4.658-0.466-5.124-7.453-9.315-6.056-4.192 0.932-8.85 1.397-12.577 3.727 2.795 5.59-4.658 2.329-3.726 3.26-6.987-4.192-13.042-7.453-20.495-4.658-15.837-5.124-35.4-2.795-49.84-0.931 0-2.329 0.466-4.658-0.466-5.124-0.932 2.329-3.726 1.397-3.26 1.397-8.85-6.055-17.7-9.782-27.016-14.905-8.384 0.932-16.303-3.261-18.632-5.59-6.521-6.055-13.974-2.795-20.029-4.192-13.042-3.261-17.7-16.769-19.098-26.084-0.932-4.658-4.658-6.521-6.055-6.056-6.055-19.563-15.371-37.263-22.824-55.429-1.863-4.658-1.397-9.316-1.397-14.44 2.329 0.932 4.658 0.466 4.192-2.794-2.329-15.371-7.918-27.016-13.974-38.195 3.261-15.837 3.726-34.469 11.179-48.443 6.521-12.576 18.632-19.098 27.016-29.811 2.795-3.726 2.795-8.85 5.59-12.11 9.316-9.316 18.632-19.098 28.879-27.482 4.658-3.726 10.247 0 17.234-1.397 2.329-8.384 11.645-15.837 20.495-13.508 3.726 0.932 11.179-8.85 13.508-9.782 3.726-1.397 1.863 3.726 1.863 6.987 8.85-6.987 20.961-10.713 32.14-14.906" fill="#e1cf5e" fill-rule="nonzero" stroke="none" stroke-width="1" stroke-linecap="butt" stroke-linejoin="miter" stroke-miterlimit="10" stroke-dasharray="" stroke-dashoffset="0" font-family="none" font-weight="none" font-size="none" text-anchor="none" style="mix-blend-mode: normal" data-fill-palette-color="tertiary"></path></g><g transform="matrix(1,0,0,1,106.26684636118598,90)"><svg viewBox="0 0 107.46630727762803 180" height="180" width="107.46630727762803"><g><svg viewBox="0 0 107.46630727762803 180" height="180" width="107.46630727762803"><g><svg viewBox="0 0 107.46630727762803 180" height="180" width="107.46630727762803"><g><svg viewBox="0 0 107.46630727762803 180" height="180" width="107.46630727762803"><g><svg viewBox="0 0 107.46630727762803 180" height="180" width="107.46630727762803"><g><svg viewBox="0 0 107.46630727762803 180" height="180" width="107.46630727762803"><g transform="matrix(1,0,0,1,0,0)"><svg width="107.46630727762803" viewBox="2.9800000190734863 -35.939998626708984 21.630001068115234 36.22999954223633" height="180" data-palette-color="#75495e"><path d="M6.93-35.5L6.93-35.5Q7.13-35.55 7.28-35.64 7.42-35.74 7.62-35.74L7.62-35.74Q7.76-35.69 7.84-35.55 7.91-35.4 8.06-35.3L8.06-35.3Q8.2-35.4 8.33-35.5 8.45-35.6 8.59-35.64L8.59-35.64Q9.08-35.5 9.13-35.16L9.13-35.16Q9.38-35.06 9.57-34.94 9.77-34.81 10.01-34.77L10.01-34.77Q10.11-34.57 10.25-34.47 10.4-34.38 10.6-34.18L10.6-34.18Q11.08-34.08 11.89-33.64 12.7-33.2 13.18-32.96L13.18-32.96Q13.67-32.71 14.16-32.47 14.65-32.23 15.09-31.93L15.09-31.93Q15.53-31.69 15.97-31.37 16.41-31.05 16.89-30.86L16.89-30.86Q17.33-30.32 18.02-30.18 18.7-30.03 19.24-29.64L19.24-29.64Q19.68-29.39 20.07-29.13 20.46-28.86 20.85-28.61L20.85-28.61Q21-28.37 21.22-28.22 21.44-28.08 21.63-27.83L21.63-27.83Q22.61-27.29 22.75-27L22.75-27Q22.9-26.9 23.19-26.71 23.49-26.51 23.78-26.29 24.07-26.07 24.32-25.85 24.56-25.63 24.61-25.44L24.61-25.44Q24.41-25 24.41-24.73 24.41-24.46 24.22-24.27L24.22-24.27Q24.51-23.88 24.51-23.54L24.51-23.54Q24.27-22.95 23.68-22.56L23.68-22.56Q23.54-22.17 23.22-21.95 22.9-21.73 22.8-21.34L22.8-21.34Q22.41-21.09 22.34-20.95 22.27-20.8 22.17-20.65L22.17-20.65Q21.24-19.68 20.43-18.97 19.63-18.26 18.95-17.43L18.95-17.43Q18.46-17.19 18.12-16.82 17.77-16.46 17.48-16.02L17.48-16.02Q17.09-15.63 16.72-15.26 16.36-14.89 15.97-14.55L15.97-14.55Q15.87-14.36 15.65-14.23 15.43-14.11 15.33-13.87L15.33-13.87Q14.79-13.62 14.45-13.18 14.11-12.74 13.62-12.45L13.62-12.45 13.28-11.96Q13.13-11.87 12.87-11.65 12.6-11.43 12.33-11.16 12.06-10.89 11.87-10.64 11.67-10.4 11.62-10.25L11.62-10.25Q11.47-10.21 11.16-9.96 10.84-9.72 10.52-9.42 10.21-9.13 9.94-8.84 9.67-8.54 9.62-8.45L9.62-8.45 9.13-8.11Q9.18-6.79 9.2-5.44 9.23-4.1 9.23-2.78L9.23-2.78 9.23-1.12 8.89-0.68Q8.64-0.68 8.5-0.78 8.35-0.88 8.15-0.88L8.15-0.88Q7.96-0.88 7.79-0.68 7.62-0.49 7.47-0.39L7.47-0.39Q7.13-0.34 6.91-0.22 6.69-0.1 6.45 0L6.45 0Q6.15-0.15 5.86-0.15L5.86-0.15Q5.22 0 5.25-0.1 5.27-0.2 5.03-0.2L5.03-0.2Q4.64 0.2 4.54 0.2L4.54 0.2Q4.35 0.2 4.17 0.24 4 0.29 3.81 0.29L3.81 0.29Q3.61-0.1 3.49-0.51 3.37-0.93 3.03-1.32L3.03-1.32Q3.17-1.81 2.98-2L2.98-2Q3.27-2.54 3.22-3.22 3.17-3.91 3.17-4.49L3.17-4.49Q3.17-4.83 3.2-5.15 3.22-5.47 3.22-5.76L3.22-5.76Q3.22-6.35 3.13-6.96 3.03-7.57 3.03-8.2L3.03-8.2Q3.03-9.67 3.13-11.16 3.22-12.65 3.22-14.11L3.22-14.11Q3.22-14.94 3.15-15.82 3.08-16.7 3.08-17.53L3.08-17.53Q3.08-18.07 3.13-18.53 3.17-18.99 3.22-19.43L3.22-19.43Q3.22-21.68 3.3-23.75 3.37-25.83 3.37-27.88L3.37-27.88Q3.37-28.56 3.34-29.17 3.32-29.79 3.32-30.47L3.32-30.47Q3.32-30.81 3.37-31.15 3.42-31.49 3.42-31.84L3.42-31.84Q3.56-33.35 3.56-34.86L3.56-34.86 3.52-35.64Q3.71-35.94 4.1-35.94L4.1-35.94Q4.64-35.94 4.93-35.6L4.93-35.6Q5.27-35.64 5.59-35.72 5.91-35.79 6.2-35.79L6.2-35.79Q6.64-35.79 6.93-35.5ZM9.91-27.88L9.81-27.73Q9.81-27.49 9.77-27.37 9.72-27.25 9.67-27.15L9.67-27.15Q9.67-27 9.69-26.83 9.72-26.66 9.72-26.46L9.72-26.46Q9.72-25.34 9.69-24.24 9.67-23.14 9.67-22.07L9.67-22.07 9.57-19.48Q9.57-19.24 9.62-18.95 9.67-18.65 9.67-18.41L9.67-18.41Q9.67-18.16 9.62-17.92 9.57-17.68 9.57-17.43L9.57-17.43Q9.57-16.8 9.72-16.16L9.72-16.16Q9.96-16.26 10.06-16.48 10.16-16.7 10.3-16.85L10.3-16.85Q11.43-17.87 12.4-18.99 13.38-20.12 14.4-21.24L14.4-21.24Q15.28-22.17 15.92-22.75 16.55-23.34 16.89-24.17L16.89-24.17Q16.06-24.71 15.19-25.27 14.31-25.83 13.33-26.22L13.33-26.22Q13.28-26.32 13.06-26.46 12.84-26.61 12.6-26.73 12.35-26.86 12.11-26.95 11.87-27.05 11.77-27.05L11.77-27.05Q11.33-27.44 10.84-27.54L10.84-27.54Q10.5-27.54 10.25-27.66 10.01-27.78 9.91-27.88L9.91-27.88Z" opacity="1" transform="matrix(1,0,0,1,0,0)" fill="#75495e" class="undefined-text-0" data-fill-palette-color="primary" id="text-0"></path></svg></g></svg></g></svg></g></svg></g><g></g></svg></g></svg></g></svg></g></svg></g><defs></defs></svg><rect width="320" height="360" fill="none" stroke="none" visibility="hidden"></rect></g></svg></g></svg>